<svg width="280" height="280" viewBox="0 0 280 280" fill="none" xmlns="http://www.w3.org/2000/svg">
<path d="M62.5989 41.0785C73.5775 28.7745 86.5355 18.269 100.789 10C104.462 16.2475 108.008 22.5747 111.712 28.8063C89.6279 41.5879 71.2879 60.7603 59.6098 83.4743C49.7999 102.328 44.7836 123.586 44.7359 144.835C48.5597 144.835 52.3835 144.843 56.2073 144.828C56.1199 119.026 64.4909 93.2952 79.7305 72.4913C94.1751 52.5947 114.709 37.1708 137.891 28.9973C151.047 24.2221 165.063 21.9857 179.046 21.8982C179.038 29.1485 178.991 36.3909 179.054 43.6412C155.364 43.7208 131.761 52.2206 113.747 67.6843C91.2894 86.4986 77.7828 115.5 78.0134 144.835C81.9485 144.843 85.8757 144.859 89.8187 144.82C89.771 124.835 96.6714 104.923 109.152 89.308C123.708 70.7882 145.848 58.4364 169.276 55.9692C195.605 52.8892 222.976 62.4236 241.785 81.1026C236.682 86.2439 231.657 91.4648 226.53 96.5901C216.489 86.6896 203.325 80.0043 189.357 77.9908C173.156 75.4997 156.08 79.1368 142.358 88.146C123.43 100.275 111.434 122.336 111.577 144.843C115.425 144.835 119.272 144.851 123.112 144.82C123.08 130.144 129.058 115.572 139.496 105.257C147.176 97.4895 157.177 92.0617 167.885 89.9128C182.552 86.7771 198.404 90.0083 210.75 98.5241C225.886 108.663 235.275 126.61 235.131 144.835C227.865 144.82 220.599 144.835 213.325 144.82C213.278 136.161 210.042 127.509 203.992 121.262C197.41 114.25 187.751 110.215 178.132 110.637C167.766 110.812 157.685 116.152 151.596 124.525C146.945 130.78 144.568 138.66 144.942 146.451C145.292 161.19 153.544 175.397 166.056 183.14C176.383 189.698 189.468 191.728 201.297 188.592C210.575 186.26 219.017 180.817 225.019 173.367C231.586 165.424 235.1 155.134 235.203 144.851C242.429 144.835 249.656 144.843 256.89 144.835C257.414 159.463 256.135 174.282 251.556 188.25C243.439 214.203 225.87 237.021 202.959 251.617C176.216 268.959 142.255 274.307 111.41 266.483C76.972 257.976 47.0731 232.794 33.0339 200.164C22.8901 173.526 20.4655 144.087 25.6328 116.089C30.8001 88.3211 43.782 62.1053 62.5989 41.0785Z" fill="#FF734E"/>
</svg>
