<svg width="64" height="64" viewBox="0 0 64 64" fill="none" xmlns="http://www.w3.org/2000/svg">
<path d="M59.5116 14.7916C58.9163 14.4999 58.6599 15.0558 58.3118 15.3382C58.1927 15.4293 58.092 15.5477 57.9912 15.657C57.1211 16.5862 56.1045 17.1968 54.7764 17.1238C52.8347 17.0144 51.1769 17.625 49.7114 19.1101C49.4 17.2788 48.3651 16.1853 46.7897 15.4839C45.9655 15.1194 45.132 14.7549 44.5549 13.9622C44.1519 13.3975 44.042 12.7688 43.8405 12.1492C43.7122 11.7757 43.584 11.3929 43.1535 11.3291C42.6864 11.2563 42.5032 11.6479 42.32 11.9761C41.5873 13.3155 41.3034 14.7915 41.3308 16.2857C41.3949 19.6478 42.8146 22.3263 45.6355 24.2306C45.9561 24.4493 46.0385 24.6678 45.9378 24.9869C45.7454 25.6429 45.5164 26.2806 45.315 26.9366C45.1867 27.3558 44.9943 27.4469 44.5456 27.2645C42.9977 26.6178 41.6604 25.661 40.4789 24.504C38.4731 22.5633 36.6596 20.4222 34.3974 18.7457C33.8662 18.3539 33.3349 17.9896 32.7853 17.6432C30.4772 15.402 33.0876 13.5614 33.6921 13.3429C34.324 13.1151 33.9119 12.3314 31.8694 12.3407C29.8269 12.3497 27.9585 13.0331 25.5772 13.9442C25.2292 14.0809 24.8627 14.181 24.4872 14.263C22.3257 13.8531 20.0817 13.7618 17.737 14.0262C13.3223 14.5181 9.79621 16.6046 7.20421 20.1671C4.09021 24.4493 3.35751 29.3145 4.25511 34.3895C5.19851 39.7376 7.92781 44.1656 12.1227 47.628C16.4733 51.2176 21.4833 52.9761 27.1985 52.639C30.6698 52.4386 34.5349 51.974 38.8946 48.284C39.9936 48.8307 41.1477 49.0492 43.062 49.2132C44.5366 49.3499 45.9563 49.1404 47.0553 48.9127C48.7772 48.5482 48.6582 46.9537 48.0354 46.6622C42.9888 44.3116 44.0969 45.2682 43.0895 44.4937C45.654 41.4598 49.5192 38.3072 51.0304 28.0936C51.1494 27.2828 51.0487 26.7725 51.0304 26.1165C51.0212 25.7157 51.1128 25.5609 51.5708 25.5152C52.8347 25.3694 54.062 25.0233 55.1886 24.4037C58.4584 22.618 59.7772 19.6842 60.0886 16.1673C60.1345 15.6297 60.0795 15.0738 59.5116 14.7916ZM31.0178 46.4434C26.1269 42.5987 23.7548 41.3321 22.7747 41.3868C21.8588 41.4415 22.0237 42.4893 22.2251 43.1727C22.4358 43.8468 22.7106 44.3116 23.0952 44.9037C23.3608 45.2955 23.5441 45.8785 22.8297 46.316C21.2543 47.2909 18.5157 45.9879 18.3874 45.9242C15.2002 44.0472 12.5349 41.5689 10.6572 38.1798C8.84371 34.9178 7.79051 31.4193 7.61641 27.6837C7.57061 26.7818 7.83621 26.4627 8.73381 26.2989C9.91531 26.0802 11.1335 26.0345 12.315 26.2076C17.3068 26.9366 21.5565 29.1688 25.1193 32.7039C27.1526 34.7174 28.6913 37.1229 30.2759 39.4735C31.9611 41.9698 33.7746 44.348 36.0827 46.2977C36.8978 46.981 37.5481 47.5003 38.1709 47.8831C36.2934 48.0926 33.161 48.1383 31.0178 46.4434ZM33.3625 31.3646C33.3625 30.9637 33.6831 30.6449 34.0862 30.6449C34.1778 30.6449 34.2602 30.6629 34.3335 30.6902C34.4343 30.7268 34.5259 30.7815 34.5991 30.8633C34.7274 30.991 34.8006 31.1731 34.8006 31.3645C34.8006 31.7654 34.4801 32.0842 34.0772 32.0842C33.6743 32.0842 33.3625 31.7655 33.3625 31.3646ZM40.644 35.1002C40.1769 35.2916 39.7098 35.4554 39.261 35.4737C38.5649 35.5101 37.8047 35.2276 37.3926 34.8814C36.7515 34.3438 36.2935 34.0433 36.1012 33.1048C36.0187 32.7039 36.0645 32.0843 36.1379 31.7291C36.3027 30.9637 36.1195 30.4718 35.5792 30.0252C35.1395 29.6607 34.5808 29.5606 33.9671 29.5606C33.7381 29.5606 33.5276 29.4603 33.3718 29.3783C33.1153 29.2508 32.9048 28.9319 33.1062 28.5401C33.1703 28.4127 33.4818 28.1028 33.5551 28.0482C34.3886 27.5743 35.3503 27.7293 36.2387 28.0846C37.0631 28.4217 37.6859 29.0413 38.5834 29.9159C39.4993 30.9727 39.6641 31.2645 40.1862 32.057C40.5985 32.6766 40.974 33.3143 41.2304 34.0433C41.3861 34.4989 41.1844 34.8724 40.644 35.1002Z" fill="#4D6BFE"/>
</svg>
